<svg width="1150" height="241" viewBox="0 0 1150 241" fill="none" xmlns="http://www.w3.org/2000/svg">
<rect width="1150" height="241" fill="white"/>
<path d="M385.46 182.711C387.254 187.88 386.824 193.384 384.431 198.171C382.707 201.665 380.243 204.369 377.227 206.786C373.59 209.658 369.067 212.099 363.61 214.444C357.101 217.22 349.156 219.829 345.518 220.786C336.209 223.203 327.258 224.734 318.189 224.806C305.218 224.926 294.042 221.863 286.097 214.037C281.98 214.54 277.816 214.827 273.628 214.827C269.656 214.827 265.731 214.588 261.83 214.109C253.861 221.887 242.733 224.926 229.81 224.806C220.74 224.734 211.79 223.203 202.456 220.786C198.843 219.829 190.898 217.22 184.388 214.444C178.932 212.099 174.409 209.658 170.795 206.786C167.756 204.369 165.291 201.665 163.568 198.171C161.199 193.384 160.744 187.88 162.563 182.711C160.888 178.762 160.457 174.239 161.773 169.238C162.371 166.964 163.353 164.858 164.597 162.992C164.334 162.01 164.118 161.005 163.975 159.904C163.065 153.347 165.339 147.364 169.623 142.722C171.729 140.4 174.002 138.797 176.371 137.768C174.624 130.349 173.715 122.715 173.715 114.913C173.715 59.7277 218.443 15 273.628 15C292.582 15 310.315 20.2649 325.44 29.4545C328.168 31.1297 330.848 32.9246 333.409 34.8391C334.677 35.7964 335.946 36.7775 337.166 37.8066C338.411 38.8117 339.631 39.8647 340.804 40.9416C344.346 44.1723 347.672 47.6424 350.711 51.3517C351.74 52.5722 352.721 53.8406 353.679 55.1329C355.617 57.6936 357.412 60.3499 359.063 63.102C361.576 67.2182 363.778 71.5259 365.692 76.0011C366.961 78.9925 368.061 82.0557 369.043 85.1907C370.502 89.8812 371.627 94.7154 372.393 99.6931C372.632 101.344 372.848 103.02 373.015 104.695C373.35 108.045 373.542 111.443 373.542 114.913C373.542 122.619 372.632 130.182 370.933 137.481C373.566 138.51 376.055 140.185 378.376 142.722C382.66 147.364 384.933 153.371 384.024 159.928C383.88 161.005 383.665 162.01 383.401 162.992C384.646 164.858 385.627 166.964 386.225 169.238C387.542 174.239 387.111 178.762 385.46 182.711Z" fill="white"/>
<path d="M272.878 198.075C318.807 198.075 356.04 160.842 356.04 114.913C356.04 68.9846 318.807 31.752 272.878 31.752C226.949 31.752 189.717 68.9846 189.717 114.913C189.717 160.842 226.949 198.075 272.878 198.075Z" fill="#FFD21E"/>
<path d="M356.042 114.913C356.042 68.9844 318.809 31.7517 272.881 31.7517C226.952 31.7517 189.719 68.9844 189.719 114.913C189.719 160.842 226.952 198.075 272.881 198.075C318.809 198.075 356.042 160.842 356.042 114.913ZM180.146 114.913C180.146 63.6977 221.665 22.1792 272.881 22.1792C324.096 22.1792 365.615 63.6977 365.615 114.913C365.615 166.129 324.096 207.647 272.881 207.647C221.665 207.647 180.146 166.129 180.146 114.913Z" fill="#FF9D00"/>
<path d="M299.897 92.2785C302.947 93.3554 304.161 99.6253 307.242 97.9872C313.077 94.8847 315.292 87.6395 312.189 81.8046C309.087 75.9697 301.841 73.7546 296.006 76.8571C290.172 79.9595 287.956 87.2048 291.059 93.0397C292.523 95.7937 297.171 91.3158 299.897 92.2785Z" fill="#32343D"/>
<path d="M243.525 92.278C240.475 93.3549 239.261 99.6249 236.18 97.9867C230.345 94.8842 228.13 87.639 231.233 81.8041C234.335 75.9692 241.58 73.7541 247.415 76.8566C253.25 79.9591 255.465 87.2043 252.363 93.0392C250.899 95.7932 246.251 91.3153 243.525 92.278Z" fill="#32343D"/>
<path d="M272.281 149.707C295.802 149.707 303.391 128.736 303.391 117.968C303.391 112.371 299.629 114.132 293.603 117.116C288.035 119.873 280.533 123.673 272.281 123.673C255.099 123.673 241.17 107.199 241.17 117.968C241.17 128.736 248.76 149.707 272.281 149.707Z" fill="#32343D"/>
<mask id="mask0_3342_24" style="mask-type:alpha" maskUnits="userSpaceOnUse" x="241" y="114" width="63" height="36">
<path d="M272.281 149.707C295.802 149.707 303.391 128.736 303.391 117.968C303.391 112.371 299.629 114.132 293.603 117.116C288.035 119.873 280.533 123.673 272.281 123.673C255.099 123.673 241.17 107.199 241.17 117.968C241.17 128.736 248.76 149.707 272.281 149.707Z" fill="white"/>
</mask>
<g mask="url(#mask0_3342_24)">
<path d="M272.879 174.144C284.342 174.144 293.634 164.851 293.634 153.389C293.634 144.46 287.997 136.848 280.087 133.919C279.796 133.811 279.502 133.71 279.205 133.615C277.21 132.977 275.085 139.832 272.879 139.832C270.817 139.832 268.826 132.933 266.947 133.493C258.374 136.045 252.123 143.987 252.123 153.389C252.123 164.851 261.416 174.144 272.879 174.144Z" fill="#FF323D"/>
</g>
<g style="mix-blend-mode:multiply">
<path d="M329.116 103.547C333.411 103.547 336.893 100.065 336.893 95.7694C336.893 91.4739 333.411 87.9917 329.116 87.9917C324.82 87.9917 321.338 91.4739 321.338 95.7694C321.338 100.065 324.82 103.547 329.116 103.547Z" fill="#FFD21E"/>
</g>
<g style="mix-blend-mode:multiply">
<path d="M217.836 103.547C222.132 103.547 225.614 100.064 225.614 95.7689C225.614 91.4734 222.132 87.9912 217.836 87.9912C213.541 87.9912 210.059 91.4734 210.059 95.7689C210.059 100.064 213.541 103.547 217.836 103.547Z" fill="#FFD21E"/>
</g>
<path d="M201.83 129.871C197.955 129.871 194.493 131.462 192.078 134.348C190.585 136.136 189.024 139.017 188.897 143.332C187.272 142.866 185.71 142.605 184.25 142.605C180.541 142.605 177.19 144.026 174.821 146.608C171.777 149.923 170.425 153.996 171.013 158.072C171.293 160.012 171.942 161.752 172.911 163.363C170.867 165.016 169.362 167.319 168.635 170.088C168.065 172.258 167.481 176.779 170.53 181.436C170.336 181.74 170.154 182.056 169.984 182.379C168.151 185.858 168.034 189.79 169.652 193.452C172.105 199.001 178.2 203.374 190.037 208.067C197.4 210.986 204.137 212.853 204.197 212.87C213.932 215.394 222.736 216.677 230.358 216.677C244.368 216.677 254.398 212.386 260.17 203.924C269.46 190.298 268.132 177.834 256.111 165.821C249.458 159.172 245.036 149.37 244.114 147.219C242.257 140.848 237.346 133.767 229.183 133.767H229.181C228.494 133.767 227.8 133.822 227.116 133.93C223.54 134.492 220.415 136.55 218.182 139.647C215.772 136.651 213.432 134.267 211.314 132.922C208.121 130.898 204.931 129.871 201.83 129.871ZM201.83 139.443C203.05 139.443 204.541 139.963 206.185 141.006C211.29 144.244 221.14 161.175 224.747 167.761C225.955 169.968 228.02 170.901 229.88 170.901C233.57 170.901 236.451 167.233 230.217 162.571C220.843 155.556 224.132 144.091 228.607 143.385C228.803 143.354 228.997 143.339 229.183 143.339C233.252 143.339 235.047 150.351 235.047 150.351C235.047 150.351 240.307 163.561 249.343 172.591C258.38 181.622 258.846 188.871 252.26 198.53C247.769 205.116 239.17 207.105 230.358 207.105C221.219 207.105 211.85 204.965 206.599 203.603C206.341 203.536 174.409 194.517 178.454 186.839C179.133 185.55 180.253 185.033 181.663 185.033C187.359 185.033 197.718 193.509 202.172 193.509C203.168 193.509 203.869 193.086 204.156 192.052C206.054 185.243 175.302 182.381 177.894 172.519C178.351 170.774 179.59 170.066 181.333 170.068C188.859 170.068 205.745 183.305 209.285 183.305C209.555 183.305 209.749 183.226 209.854 183.058C211.627 180.196 210.656 178.198 198.156 170.633C185.657 163.066 176.884 158.514 181.874 153.082C182.448 152.455 183.262 152.177 184.25 152.177C191.839 152.18 209.768 168.496 209.768 168.496C209.768 168.496 214.607 173.529 217.534 173.529C218.206 173.529 218.778 173.263 219.166 172.607C221.241 169.109 199.894 152.931 198.69 146.257C197.874 141.734 199.262 139.443 201.83 139.443Z" fill="#FF9D00"/>
<path d="M252.26 198.53C258.846 188.871 258.379 181.622 249.343 172.591C240.306 163.561 235.046 150.351 235.046 150.351C235.046 150.351 233.081 142.679 228.606 143.385C224.131 144.091 220.845 155.556 230.219 162.57C239.593 169.582 228.353 174.347 224.746 167.761C221.14 161.175 211.292 144.244 206.185 141.006C201.08 137.768 197.486 139.582 198.69 146.256C199.893 152.931 221.243 169.109 219.165 172.61C217.088 176.108 209.767 168.496 209.767 168.496C209.767 168.496 186.86 147.649 181.873 153.082C176.886 158.514 185.657 163.066 198.156 170.633C210.658 178.198 211.627 180.196 209.854 183.058C208.078 185.92 180.485 162.657 177.893 172.519C175.304 182.381 206.053 185.243 204.156 192.052C202.258 198.862 182.495 179.164 178.453 186.839C174.409 194.516 206.34 203.536 206.599 203.603C216.913 206.279 243.109 211.948 252.26 198.53Z" fill="#FFD21E"/>
<path d="M345.121 129.871C348.996 129.871 352.459 131.463 354.873 134.349C356.367 136.136 357.927 139.018 358.054 143.332C359.679 142.866 361.241 142.605 362.701 142.605C366.411 142.605 369.761 144.026 372.13 146.609C375.174 149.923 376.526 153.996 375.938 158.072C375.658 160.013 375.009 161.752 374.04 163.363C376.084 165.017 377.589 167.319 378.316 170.088C378.886 172.258 379.47 176.779 376.421 181.436C376.615 181.74 376.797 182.056 376.967 182.379C378.8 185.859 378.917 189.79 377.299 193.452C374.846 199.002 368.751 203.374 356.915 208.067C349.551 210.986 342.814 212.853 342.754 212.87C333.019 215.395 324.215 216.677 316.593 216.677C302.583 216.677 292.554 212.386 286.781 203.924C277.491 190.298 278.819 177.834 290.84 165.821C297.493 159.173 301.916 149.37 302.837 147.219C304.694 140.848 309.605 133.767 317.768 133.767H317.77C318.457 133.767 319.151 133.822 319.835 133.93C323.411 134.492 326.536 136.55 328.769 139.647C331.179 136.651 333.519 134.267 335.637 132.922C338.83 130.898 342.02 129.871 345.121 129.871ZM345.121 139.444C343.901 139.444 342.41 139.963 340.766 141.006C335.661 144.244 325.811 161.176 322.205 167.762C320.996 169.968 318.931 170.901 317.071 170.901C313.381 170.901 310.5 167.233 316.734 162.571C326.108 155.557 322.82 144.091 318.344 143.385C318.148 143.354 317.954 143.34 317.768 143.34C313.699 143.34 311.905 150.352 311.905 150.352C311.905 150.352 306.644 163.562 297.608 172.591C288.571 181.623 288.105 188.871 294.691 198.53C299.183 205.116 307.781 207.105 316.593 207.105C325.732 207.105 335.101 204.965 340.352 203.604C340.61 203.537 372.542 194.517 368.497 186.84C367.818 185.55 366.698 185.033 365.288 185.033C359.593 185.033 349.233 193.509 344.779 193.509C343.784 193.509 343.082 193.086 342.795 192.052C340.897 185.243 371.649 182.381 369.057 172.519C368.6 170.775 367.361 170.066 365.618 170.069C358.092 170.069 341.206 183.305 337.667 183.305C337.396 183.305 337.202 183.226 337.097 183.059C335.324 180.196 336.295 178.198 348.795 170.633C361.294 163.066 370.067 158.515 365.078 153.082C364.503 152.455 363.69 152.178 362.701 152.178C355.113 152.18 337.183 168.496 337.183 168.496C337.183 168.496 332.344 173.529 329.418 173.529C328.745 173.529 328.173 173.263 327.785 172.608C325.711 169.109 347.057 152.931 348.261 146.257C349.077 141.734 347.689 139.444 345.121 139.444Z" fill="#FF9D00"/>
<path d="M294.691 198.53C288.105 188.871 288.572 181.622 297.608 172.591C306.645 163.561 311.905 150.351 311.905 150.351C311.905 150.351 313.87 142.679 318.345 143.385C322.82 144.091 326.106 155.556 316.732 162.571C307.358 169.583 318.599 174.347 322.205 167.761C325.812 161.176 335.659 144.244 340.766 141.006C345.871 137.768 349.465 139.582 348.262 146.257C347.058 152.931 325.709 169.109 327.786 172.61C329.863 176.109 337.184 168.496 337.184 168.496C337.184 168.496 360.091 147.65 365.078 153.082C370.065 158.514 361.295 163.066 348.795 170.633C336.294 178.198 335.324 180.196 337.098 183.058C338.873 185.921 366.466 162.657 369.058 172.519C371.647 182.381 340.898 185.243 342.796 192.052C344.693 198.863 364.456 179.165 368.498 186.84C372.542 194.517 340.611 203.536 340.352 203.603C330.038 206.279 303.843 211.948 294.691 198.53Z" fill="#FFD21E"/>
<path d="M428.779 166V82.8H450.795V147.568H482.283V166H428.779ZM494.862 166V102H516.878V166H494.862ZM505.87 94.064C502.286 94.064 499.384 93.0827 497.166 91.12C494.947 89.072 493.838 86.384 493.838 83.056C493.838 79.728 494.947 77.0827 497.166 75.12C499.384 73.072 502.286 72.048 505.87 72.048C509.454 72.048 512.355 73.072 514.574 75.12C516.792 77.0827 517.902 79.728 517.902 83.056C517.902 86.384 516.792 89.072 514.574 91.12C512.355 93.0827 509.454 94.064 505.87 94.064ZM555.033 192.368C550.169 192.368 545.689 191.813 541.593 190.704C537.497 189.68 534.211 188.016 531.737 185.712C529.347 183.408 528.153 180.336 528.153 176.496C528.153 171.461 531.139 167.365 537.113 164.208V163.696C535.491 162.501 534.083 161.051 532.889 159.344C531.779 157.552 531.225 155.333 531.225 152.688C531.225 150.469 531.865 148.293 533.145 146.16C534.51 144.027 536.259 142.192 538.393 140.656V140.144C536.089 138.608 534.041 136.432 532.249 133.616C530.542 130.715 529.689 127.429 529.689 123.76C529.689 118.469 530.969 114.117 533.529 110.704C536.174 107.205 539.587 104.645 543.769 103.024C547.95 101.317 552.387 100.464 557.081 100.464C560.835 100.464 564.249 100.976 567.321 102H591.129V117.872H581.913C582.169 118.64 582.382 119.621 582.553 120.816C582.809 122.011 582.937 123.248 582.937 124.528C582.937 129.563 581.785 133.659 579.481 136.816C577.177 139.888 574.062 142.149 570.137 143.6C566.211 145.051 561.859 145.776 557.081 145.776C554.947 145.776 552.558 145.477 549.913 144.88C548.889 145.819 548.377 147.056 548.377 148.592C548.377 149.957 549.059 150.939 550.425 151.536C551.875 152.133 554.179 152.432 557.337 152.432H566.937C574.958 152.432 581.145 153.755 585.497 156.4C589.934 158.96 592.153 163.184 592.153 169.072C592.153 173.68 590.617 177.733 587.545 181.232C584.558 184.731 580.291 187.461 574.745 189.424C569.198 191.387 562.627 192.368 555.033 192.368ZM557.081 132.72C559.129 132.72 560.793 131.995 562.073 130.544C563.353 129.093 563.993 126.832 563.993 123.76C563.993 120.773 563.353 118.597 562.073 117.232C560.793 115.781 559.129 115.056 557.081 115.056C555.033 115.056 553.369 115.781 552.089 117.232C550.809 118.597 550.169 120.773 550.169 123.76C550.169 126.832 550.809 129.093 552.089 130.544C553.369 131.995 555.033 132.72 557.081 132.72ZM558.617 178.8C562.201 178.8 565.187 178.245 567.577 177.136C569.966 176.112 571.161 174.704 571.161 172.912C571.161 171.205 570.393 170.139 568.857 169.712C567.406 169.285 565.315 169.072 562.585 169.072H557.593C555.033 169.072 553.07 168.987 551.705 168.816C550.425 168.731 549.315 168.56 548.377 168.304C546.841 169.84 546.073 171.376 546.073 172.912C546.073 174.96 547.225 176.453 549.529 177.392C551.918 178.331 554.947 178.8 558.617 178.8ZM601.612 166V76.912H623.628V97.648L622.604 108.656C624.822 106.693 627.468 104.859 630.54 103.152C633.697 101.36 637.452 100.464 641.804 100.464C648.886 100.464 653.964 102.853 657.036 107.632C660.193 112.325 661.771 118.64 661.771 126.576V166H639.756V129.392C639.756 125.296 639.244 122.565 638.22 121.2C637.196 119.835 635.574 119.152 633.356 119.152C631.308 119.152 629.601 119.579 628.236 120.432C626.87 121.285 625.334 122.48 623.628 124.016V166H601.612ZM702.479 167.536C694.202 167.536 688.186 165.147 684.432 160.368C680.762 155.504 678.928 149.189 678.928 141.424V119.152H670.48V102.768L680.208 102L682.768 85.36H700.944V102H715.536V119.152H700.944V141.04C700.944 144.539 701.712 146.971 703.248 148.336C704.784 149.701 706.576 150.384 708.624 150.384C709.648 150.384 710.629 150.299 711.568 150.128C712.592 149.872 713.488 149.616 714.256 149.36L717.584 165.232C715.962 165.744 713.914 166.256 711.44 166.768C708.965 167.28 705.978 167.536 702.479 167.536ZM754.558 167.536C748.328 167.536 742.696 166.213 737.662 163.568C732.712 160.923 728.787 157.125 725.885 152.176C722.984 147.141 721.534 141.083 721.534 134C721.534 127.088 722.984 121.157 725.885 116.208C728.872 111.173 732.712 107.291 737.406 104.56C742.099 101.829 747.048 100.464 752.254 100.464C758.568 100.464 763.774 101.872 767.87 104.688C772.051 107.419 775.123 111.131 777.086 115.824C779.134 120.517 780.158 125.723 780.158 131.44C780.158 133.317 780.03 135.152 779.774 136.944C779.603 138.651 779.432 139.888 779.262 140.656H742.782C743.806 144.496 745.64 147.184 748.286 148.72C750.931 150.171 754.046 150.896 757.63 150.896C761.726 150.896 766.078 149.616 770.686 147.056L777.854 160.112C774.44 162.501 770.6 164.336 766.334 165.616C762.067 166.896 758.142 167.536 754.558 167.536ZM742.526 126.32H761.47C761.47 123.845 760.83 121.712 759.55 119.92C758.355 118.043 756.094 117.104 752.766 117.104C750.376 117.104 748.243 117.829 746.366 119.28C744.488 120.731 743.208 123.077 742.526 126.32ZM806.091 166L785.099 102H807.115L814.027 129.904C815.563 136.304 817.099 142.96 818.635 149.872H819.147C820.683 142.96 822.219 136.304 823.755 129.904L830.667 102H851.659L831.435 166H806.091ZM874.752 167.536C870.741 167.536 867.285 166.64 864.384 164.848C861.568 162.971 859.392 160.539 857.856 157.552C856.32 154.565 855.552 151.323 855.552 147.824C855.552 141.168 858.282 135.963 863.744 132.208C869.205 128.368 878.08 125.808 890.368 124.528C889.856 120.091 886.869 117.872 881.408 117.872C879.104 117.872 876.672 118.341 874.112 119.28C871.552 120.133 868.608 121.456 865.28 123.248L857.6 108.912C862.122 106.181 866.688 104.091 871.296 102.64C875.989 101.189 880.81 100.464 885.76 100.464C894.122 100.464 900.65 102.853 905.344 107.632C910.037 112.325 912.384 119.92 912.384 130.416V166H894.464L892.928 159.856H892.416C889.856 162.16 887.125 164.037 884.224 165.488C881.408 166.853 878.25 167.536 874.752 167.536ZM882.432 150.64C884.224 150.64 885.717 150.256 886.912 149.488C888.106 148.635 889.258 147.568 890.368 146.288V137.584C885.162 138.352 881.536 139.504 879.488 141.04C877.525 142.576 876.544 144.24 876.544 146.032C876.544 149.104 878.506 150.64 882.432 150.64ZM946.449 167.536C941.499 167.536 937.574 166.555 934.673 164.592C931.857 162.544 929.809 159.728 928.529 156.144C927.334 152.475 926.737 148.251 926.737 143.472V76.912H948.753V144.24C948.753 146.373 949.137 147.867 949.905 148.72C950.758 149.488 951.569 149.872 952.337 149.872C952.763 149.872 953.105 149.872 953.361 149.872C953.702 149.787 954.129 149.701 954.641 149.616L957.201 165.744C956.091 166.256 954.641 166.683 952.849 167.024C951.057 167.365 948.923 167.536 946.449 167.536Z" fill="#121212"/>
</svg>
